HIERARCHY
ROOT Hips
{
	OFFSET 0.00000 0.00000 0.00000
	CHANNELS 6 Xposition Yposition Zposition Yrotation Zrotation Xrotation 
	JOINT Lumbar
	{
		OFFSET 0 0 0
		CHANNELS 3 Zrotation Xrotation Yrotation
		JOINT Neck
		{
			OFFSET 0.00 0.2701 0.00
			CHANNELS 3 Zrotation Xrotation Yrotation
			End Site
			{
				OFFSET 0.00 0.1379 0.00
			}
		}
		JOINT RightShoulder
		{
			OFFSET 0.0119 0.2289 0.1181
			CHANNELS 3 Zrotation Xrotation Yrotation
			JOINT RightElbow
			{
				OFFSET 0.00 -0.1475 0.00
				CHANNELS 2 Zrotation Yrotation
				JOINT RightWrist
				{
					OFFSET 0.00 -0.1605 0.00
					CHANNELS 2 Zrotation Xrotation
					End Site
					{
						OFFSET 0.0040 -0.1068 0.0006
					}
				}
			}
		}
		JOINT LeftShoulder
		{
			OFFSET 0.0119 0.2289 -0.1181
			CHANNELS 3 Zrotation Xrotation Yrotation
			JOINT LeftElbow
			{
				OFFSET 0.00 -0.1475 0.00
				CHANNELS 2 Zrotation Yrotation
				JOINT LeftWrist
				{
					OFFSET 0.00 -0.1605 0.00
					CHANNELS 2 Zrotation Xrotation
					End Site
					{
						OFFSET 0.0040 -0.1068 -0.0006
					}
				}
			}
		}
	}
	JOINT RightHip
	{
		OFFSET 0.0316 -0.0424 0.0458
		CHANNELS 3 Zrotation Xrotation Yrotation
		JOINT RightKnee
		{
			OFFSET 0.00 -0.2438 0.00
			CHANNELS 1 Zrotation
			JOINT RightAnkle
			{
				OFFSET 0.00 -0.2449 0.00
				CHANNELS 3 Zrotation Xrotation Yrotation
				End Site
				{
					OFFSET 0.1237 -0.0542 0.0051
				}
			}
		}
	}
	JOINT LeftHip
	{
		OFFSET 0.0316 -0.0424 -0.0458
		CHANNELS 3 Zrotation Xrotation Yrotation
		JOINT LeftKnee
		{
			OFFSET 0.00 -0.2438 0.00
			CHANNELS 1 Zrotation
			JOINT LeftAnkle
			{
				OFFSET 0.00 -0.2449 0.00
				CHANNELS 3 Zrotation Xrotation Yrotation
				End Site
				{
					OFFSET 0.1237 -0.0542 -0.0051
				}
			}
		}
	}
}
MOTION
Frames: 25
Frame Time: 0.02
1.55439 -0.01275 -0.4079 746.89477 -14.57731 8.65765 19.23961 -2.2024 -4.06102 -3.47497 10.43514 -2.11994 29.8299 -20.57079 -5.23521 73.33485 71.87209 -7.36961 3.57892 4.73643 11.32808 -5.02068 98.45841 -81.8655 -2.23362 -0.49246 -1.41882 -7.70675 -17.923 -88.19452 -6.7513 -2.53021 -3.46987 83.52036 11.26679 2.56087 -136.07091 -6.15153 0.84352 2.63792
1.55521 -0.01242 -0.40722 747.0449 -14.58657 8.72893 19.32651 -2.24812 -4.48503 -3.30058 9.99286 -2.11994 29.33585 -20.84407 -4.67093 74.34751 72.02386 -7.49333 3.37866 5.07363 11.33114 -5.37698 98.42205 -81.85154 -2.14912 -0.12772 -1.4732 -7.42023 -17.86848 -87.91654 -6.78332 -2.55316 -3.48226 83.46372 11.25246 2.74211 -136.07434 -6.11506 0.8781 2.65936
1.55618 -0.01203 -0.40659 747.15432 -14.55944 8.81759 19.42886 -2.31457 -4.89825 -3.08835 9.47193 -2.11994 29.24049 -21.3039 -3.85227 75.6804 72.42846 -7.67819 2.98701 5.36533 11.34184 -5.72469 98.4273 -81.82409 -2.04603 0.32487 -1.57497 -7.11977 -17.7519 -87.64757 -6.81332 -2.58804 -3.50063 83.33134 11.24753 2.93562 -136.08404 -6.06858 0.92207 2.68647
1.55709 -0.01167 -0.40594 747.28016 -14.55153 8.90179 19.52987 -2.36957 -5.31359 -2.88905 8.98145 -2.11994 29.01812 -21.6917 -3.12344 76.89848 72.73991 -7.81787 2.68036 5.67628 11.34717 -6.07244 98.41357 -81.80418 -1.95112 0.72534 -1.6558 -6.84038 -17.67139 -87.37436 -6.84371 -2.616 -3.51551 83.23115 11.24779 3.132 -136.08946 -6.02769 0.96058 2.71002
1.558 -0.01131 -0.40524 747.41482 -14.53273 8.97181 19.60855 -2.43422 -5.74279 -2.70709 8.51046 -2.11994 28.56722 -22.03172 -2.49681 77.99831 72.96744 -8.02671 2.38611 5.99348 11.36051 -6.43552 98.39974 -81.77928 -1.85446 1.18303 -1.73446 -6.49866 -17.55885 -87.09857 -6.8766 -2.65012 -3.53358 83.13992 11.20839 3.29482 -136.10098 -5.9823 1.00429 2.73776
1.55892 -0.01092 -0.40468 747.52123 -14.52691 9.07491 19.7367 -2.48344 -6.13946 -2.48115 7.98249 -2.11994 28.69336 -22.51075 -1.59718 79.41067 73.42302 -8.11069 2.0215 6.28712 11.359 -6.7656 98.39542 -81.7612 -1.75844 1.53856 -1.83015 -6.28327 -17.49818 -86.83078 -6.90373 -2.67429 -3.54644 83.01107 11.25276 3.52714 -136.10105 -5.94405 1.03924 2.7581
1.55981 -0.01047 -0.40449 747.56196 -14.57683 9.27082 19.99883 -2.48322 -6.45214 -2.1324 7.30183 -2.11994 30.23568 -23.35803 -0.03454 81.67227 74.49335 -7.79687 1.47757 6.52243 11.31434 -6.99971 98.41635 -81.76511 -1.66438 1.61262 -1.9438 -6.42218 -17.59095 -86.59216 -6.91516 -2.66822 -3.54365 82.81077 11.53819 3.97925 -136.0704 -5.92653 1.04888 2.75669
1.5607 -0.01 -0.40444 747.57527 -14.6391 9.49834 20.30984 -2.46705 -6.73136 -1.74278 6.56967 -2.11994 32.35805 -24.33222 1.79738 84.22276 75.77544 -7.36211 0.87358 6.73627 11.25457 -7.20251 98.4439 -81.77624 -1.57236 1.57746 -2.07577 -6.68782 -17.73827 -86.3601 -6.9209 -2.65175 -3.53542 82.57287 11.90556 4.49524 -136.02752 -5.9168 1.04918 2.74762
1.5616 -0.00954 -0.40434 747.59961 -14.68859 9.70774 20.59741 -2.45896 -7.02383 -1.37856 5.87056 -2.11994 34.26689 -25.22875 3.52435 86.60014 76.92896 -7.0083 0.31806 6.96283 11.2018 -7.42392 98.46252 -81.78397 -1.48318 1.57561 -2.21075 -6.89485 -17.86429 -86.11961 -6.92937 -2.63991 -3.52952 82.34331 12.22753 4.96178 -135.98873 -5.90443 1.053 2.742
1.56247 -0.00908 -0.40422 747.62852 -14.76707 9.93379 20.89048 -2.44748 -7.32517 -0.98355 5.12707 -2.11994 35.98121 -26.21817 5.18972 89.17267 78.22681 -6.54851 -0.32999 7.17555 11.14849 -7.62548 98.50742 -81.79168 -1.37917 1.64052 -2.30027 -7.10796 -17.97549 -85.90258 -6.93706 -2.62875 -3.52433 82.14797 12.58391 5.51477 -135.95656 -5.88788 1.06018 2.73667
1.5634 -0.00862 -0.40415 747.642 -14.78858 10.13222 21.18383 -2.4398 -7.59904 -0.64425 4.46596 -2.11994 38.22962 -27.03937 7.04035 91.39399 79.27237 -6.27792 -0.80142 7.41228 11.09294 -7.86242 98.49884 -81.80139 -1.30457 1.54594 -2.48732 -7.33583 -18.12877 -85.6379 -6.94517 -2.61375 -3.51643 81.87348 12.88841 5.90294 -135.90733 -5.88202 1.05805 2.72887
1.56446 -0.00823 -0.40416 747.61911 -14.64968 10.24825 21.46298 -2.43943 -7.8151 -0.46231 4.03578 -2.11994 41.8377 -27.38489 9.36479 92.65 79.55602 -6.5771 -0.73224 7.72303 11.03188 -8.19313 98.33914 -81.81445 -1.33033 0.97866 -2.94663 -7.59813 -18.40736 -85.24231 -6.95461 -2.58892 -3.50099 81.38951 13.02544 5.8178 -135.81654 -5.90383 1.03222 2.71599
1.56558 -0.00784 -0.4042 747.58194 -14.45316 10.33491 21.74117 -2.44466 -8.00272 -0.33932 3.69247 -2.11994 45.95442 -27.55222 11.85868 93.52623 79.57953 -7.06744 -0.48898 8.05809 10.96952 -8.56267 98.12564 -81.82946 -1.38241 0.26432 -3.50199 -7.86648 -18.72283 -84.79825 -6.96486 -2.56087 -3.48324 80.82767 13.10796 5.56479 -135.70859 -5.93614 0.99738 2.70088
1.56667 -0.00745 -0.40423 747.55181 -14.28337 10.43397 22.02177 -2.45183 -8.19716 -0.19368 3.31571 -2.11994 49.82095 -27.78696 14.2567 94.52628 79.72986 -7.45811 -0.35011 8.38112 10.9098 -8.92219 97.93765 -81.84388 -1.40921 -0.34332 -4.00802 -8.11582 -19.00664 -84.37465 -6.9756 -2.53536 -3.46743 80.30185 13.21838 5.39051 -135.60668 -5.96369 0.96679 2.68683
1.56776 -0.00708 -0.40428 747.5183 -14.11201 10.5385 22.29595 -2.43946 -8.41683 -0.02877 2.91137 -2.11994 53.79577 -28.08294 16.74865 95.7454 79.85207 -7.89787 -0.10862 8.70905 10.84127 -9.24874 97.74503 -81.85716 -1.49082 -1.11938 -4.53799 -8.43777 -19.35404 -83.95724 -6.9827 -2.50485 -3.44766 79.77167 13.31931 5.20902 -135.51136 -5.99155 0.93517 2.67232
1.56887 -0.00666 -0.40428 747.48887 -13.92969 10.62379 22.58239 -2.46938 -8.57683 0.08103 2.58616 -2.11994 57.6489 -28.20812 19.07575 96.41064 79.96748 -8.28328 -0.03637 9.0309 10.79052 -9.6532 97.5497 -81.87332 -1.46636 -1.58272 -5.04156 -8.60882 -19.5785 -83.51616 -6.99742 -2.48425 -3.43567 79.233 13.42494 5.00075 -135.3989 -6.02105 0.90376 2.65836
1.57006 -0.0061 -0.40416 747.47396 -13.73444 10.66702 22.90475 -2.61433 -8.58598 0.05649 2.45535 -2.11994 61.11496 -27.89807 20.95324 95.66781 80.13305 -8.46379 -0.49294 9.34635 10.79325 -10.26634 97.35554 -81.89573 -1.12633 -1.10641 -5.44054 -8.35559 -19.44069 -83.01436 -7.03525 -2.4908 -3.44571 78.68684 13.56571 4.76906 -135.23914 -6.05343 0.87432 2.64617
1.57128 -0.00549 -0.404 747.46386 -13.52955 10.69105 23.23886 -2.80176 -8.53488 -0.02234 2.4019 -2.11994 64.42225 -27.42325 22.64774 94.37417 80.29851 -8.58471 -1.12143 9.65154 10.81328 -10.95583 97.16137 -81.92112 -0.68153 -0.31704 -5.8108 -7.95028 -19.17946 -82.49157 -7.08043 -2.50772 -3.46371 78.13568 13.71124 4.51434 -135.06355 -6.0869 0.84558 2.6347
1.57249 -0.00491 -0.40385 747.45186 -13.32684 10.72112 23.56617 -2.97009 -8.50699 -0.07872 2.31525 -2.11994 67.75374 -27.02757 24.39511 93.31217 80.45963 -8.73931 -1.6592 9.95129 10.82272 -11.6089 96.97002 -81.94595 -0.2955 0.30299 -6.19984 -7.6186 -18.9844 -81.98332 -7.12072 -2.52057 -3.47808 77.58896 13.84814 4.26339 -134.89801 -6.11922 0.81714 2.62315
1.57368 -0.00431 -0.40373 747.43808 -13.13118 10.76139 23.89976 -3.13784 -8.49586 -0.12763 2.22365 -2.11994 71.31434 -26.60661 26.28081 92.31474 80.63096 -8.87431 -2.24637 10.29601 10.84341 -12.27179 96.76464 -81.96764 0.13615 1.03124 -6.56918 -7.27023 -18.75104 -81.45296 -7.16722 -2.53044 -3.49236 77.03005 14.00967 4.03403 -134.71985 -6.15463 0.78585 2.61051
1.57491 -0.00375 -0.40353 747.42944 -12.91961 10.77639 24.2229 -3.3167 -8.4357 -0.20436 2.15919 -2.11994 74.34263 -26.20294 27.82722 91.05846 80.78358 -9.0314 -2.77088 10.54245 10.84508 -12.93035 96.58955 -81.99638 0.4987 1.61143 -6.97009 -6.91778 -18.564 -80.96346 -7.20294 -2.54918 -3.50885 76.49674 14.12277 3.75752 -134.5644 -6.18378 0.76069 2.6003
1.57623 -0.00334 -0.40312 747.4329 -12.66398 10.72513 24.51572 -3.51676 -8.25652 -0.34341 2.1539 -2.11994 76.0254 -25.87569 28.52612 89.21055 80.89214 -9.28064 -3.10471 10.53569 10.78769 -13.57045 96.49514 -82.04534 0.63902 1.69776 -7.47662 -6.61434 -18.56675 -80.59952 -7.20336 -2.5886 -3.52865 76.03286 14.0917 3.34794 -134.47596 -6.19479 0.75297 2.59685
1.57759 -0.00299 -0.40263 747.44159 -12.39352 10.6496 24.79739 -3.72627 -8.02984 -0.50854 2.17211 -2.11994 77.15798 -25.57473 28.88031 87.12564 80.98173 -9.54965 -3.36533 10.4272 10.7111 -14.20079 96.43199 -82.10105 0.70739 1.62655 -8.01327 -6.3083 -18.61478 -80.27641 -7.19316 -2.63689 -3.55064 75.59588 14.01349 2.89438 -134.41095 -6.1995 0.75131 2.59578
1.57892 -0.00262 -0.40218 747.4486 -12.13166 10.58591 25.08319 -3.93092 -7.82407 -0.66224 2.17722 -2.11994 78.48542 -25.27004 29.3626 85.15821 81.07634 -9.79837 -3.64501 10.35505 10.64469 -14.82776 96.35681 -82.15262 0.81264 1.63386 -8.52817 -5.98749 -18.62046 -79.92968 -7.19059 -2.68192 -3.5721 75.14852 13.96348 2.46705 -134.33495 -6.20746 0.74643 2.59348
1.58028 -0.00224 -0.40172 747.45293 -11.86121 10.51752 25.37323 -4.13975 -7.61933 -0.81602 2.19581 -2.11994 80.04614 -24.92418 29.96062 83.12826 81.18602 -10.09475 -3.99273 10.32482 10.57232 -15.49156 96.27262 -82.20864 0.9039 1.62305 -9.07625 -5.7262 -18.71171 -79.60291 -7.17737 -2.72385 -3.59159 74.69277 13.88592 2.01145 -134.2597 -6.21394 0.74346 2.59182
